<?xml version="1.0" encoding="iso-8859-1"?>
<!-- Generator: Adobe Illustrator 19.0.0, SVG Export Plug-In . SVG Version: 6.00 Build 0)  -->
<svg version="1.1" id="Capa_1" xmlns="http://www.w3.org/2000/svg" xmlns:xlink="http://www.w3.org/1999/xlink" x="0px" y="0px"
	 viewBox="0 0 512 512" style="enable-background:new 0 0 512 512;" xml:space="preserve">
<g>
	<g>
		<path d="M469.333,106.667h-32V128h21.333v362.667h-27.584l-18.208-18.208l-15.083,15.083l21.333,21.333
			c2,2.001,4.713,3.125,7.541,3.125h42.667c5.891,0,10.667-4.776,10.667-10.667v-384C480,111.442,475.224,106.667,469.333,106.667z"
			/>
	</g>
</g>
<g>
	<g>
		<path d="M405.333,106.667H42.667c-5.891,0-10.667,4.776-10.667,10.667V480c0,17.673,14.327,32,32,32h320
			c2.829-0.001,5.541-1.125,7.541-3.125l21.333-21.333c2.001-2,3.125-4.713,3.125-7.541V117.333
			C416,111.442,411.224,106.667,405.333,106.667z M394.667,475.584l-15.083,15.083H64c-5.891,0-10.667-4.776-10.667-10.667V128
			h341.333V475.584z"/>
	</g>
</g>
<g>
	<g>
		<path d="M309.333,0H138.667c-17.673,0-32,14.327-32,32v138.667H128V32c0-5.891,4.776-10.667,10.667-10.667h170.667
			C315.224,21.333,320,26.109,320,32v138.667h21.333V32C341.333,14.327,327.006,0,309.333,0z"/>
	</g>
</g>
<g>
	<g>
		<path d="M384,0h-21.333v21.333H384c5.891,0,10.667,4.776,10.667,10.667v53.333H416V32C416,14.327,401.673,0,384,0z"/>
	</g>
</g>
<g>
	<g>
		<path d="M128,160h-21.333c-11.782,0-21.333,9.551-21.333,21.333v32C85.333,219.224,90.109,224,96,224h42.667
			c5.891,0,10.667-4.776,10.667-10.667v-32C149.333,169.551,139.782,160,128,160z M128,202.667h-21.333v-21.333H128V202.667z"/>
	</g>
</g>
<g>
	<g>
		<path d="M341.333,160H320c-11.782,0-21.333,9.551-21.333,21.333v32c0,5.891,4.776,10.667,10.667,10.667H352
			c5.891,0,10.667-4.776,10.667-10.667v-32C362.667,169.551,353.115,160,341.333,160z M341.333,202.667H320v-21.333h21.333V202.667z
			"/>
	</g>
</g>
<g>
</g>
<g>
</g>
<g>
</g>
<g>
</g>
<g>
</g>
<g>
</g>
<g>
</g>
<g>
</g>
<g>
</g>
<g>
</g>
<g>
</g>
<g>
</g>
<g>
</g>
<g>
</g>
<g>
</g>
</svg>
